<?xml version="1.0" standalone="no"?>
<svg version="1.0" xmlns="http://www.w3.org/2000/svg"
 width="1080.000000pt" height="364.000000pt" viewBox="0 0 1080.000000 364.000000"
 preserveAspectRatio="xMidYMid meet">

<g transform="translate(0.000000,364.000000) scale(0.100000,-0.100000)"
fill="#000000" stroke="none">
<path d="M6335 3387 c-73 -24 -179 -86 -265 -156 -372 -301 -934 -1064 -1242
-1686 -78 -158 -105 -190 -297 -355 -118 -102 -202 -156 -226 -146 -31 12 -18
45 97 231 65 107 82 152 69 186 -20 52 -89 100 -164 113 -33 6 -46 2 -87 -24
-84 -54 -208 -87 -225 -61 -3 6 8 30 25 54 52 73 41 180 -21 212 -38 20 -118
19 -149 -2 -85 -56 -140 -136 -140 -202 0 -114 112 -193 278 -194 45 -1 82 -2
82 -4 0 -1 -16 -38 -35 -82 -51 -116 -62 -179 -41 -235 10 -25 34 -60 55 -79
66 -59 207 -117 289 -117 73 0 193 88 321 234 l84 96 21 -43 c11 -23 52 -74
91 -113 86 -86 181 -138 283 -155 63 -10 77 -10 119 6 72 27 156 91 270 205
101 101 102 102 141 95 51 -8 157 20 232 62 4 2 4 -26 2 -61 -5 -81 18 -135
86 -198 94 -88 210 -138 319 -138 72 0 110 16 212 88 63 45 63 45 90 28 85
-56 204 -96 287 -96 84 0 156 59 336 277 l76 91 16 -43 c56 -147 276 -323 440
-354 123 -23 287 64 492 261 l101 98 12 -59 c18 -90 80 -169 181 -232 125 -77
274 -21 528 200 l64 55 63 -17 c74 -20 128 -21 211 -6 105 19 231 84 327 169
31 27 34 28 111 20 43 -4 116 -5 161 -3 101 7 130 -5 121 -48 -17 -86 -240
-319 -305 -319 -51 0 -32 38 93 184 60 69 76 95 74 115 -4 39 -37 38 -116 -4
-146 -76 -252 -189 -252 -266 0 -52 28 -106 87 -166 109 -112 253 -144 378
-84 173 83 365 337 366 484 2 139 -116 215 -351 226 l-115 6 78 76 c69 68 77
80 77 113 0 49 -19 83 -72 132 -61 56 -127 81 -177 66 -119 -36 -223 -188
-224 -327 0 -37 6 -72 16 -92 18 -35 16 -37 -61 -77 -74 -38 -217 -40 -297 -4
l-24 11 19 27 c30 42 60 127 60 170 0 99 -124 138 -235 75 -62 -36 -129 -113
-154 -178 -25 -69 -26 -94 -4 -148 l16 -41 -39 -34 c-107 -93 -196 -154 -225
-154 -113 0 -89 97 78 321 132 178 134 186 74 270 -57 80 -132 129 -195 129
-30 0 -45 -10 -105 -71 -78 -78 -146 -175 -184 -260 -23 -52 -33 -62 -123
-121 -240 -158 -472 -253 -596 -246 l-50 3 98 77 c108 84 218 191 258 252 32
48 34 110 7 165 -41 80 -167 161 -251 161 -106 0 -282 -116 -379 -250 -72 -99
-471 -420 -523 -420 -34 0 -18 42 77 199 82 134 95 162 95 200 0 37 -5 49 -34
76 -40 37 -145 79 -198 79 -22 1 -48 -8 -65 -20 l-28 -21 -38 43 c-53 61 -151
108 -236 112 -58 3 -72 -1 -114 -25 -66 -39 -149 -113 -234 -208 -90 -101
-160 -145 -242 -152 -32 -3 -71 -3 -84 1 l-25 6 30 62 c58 115 38 185 -62 220
-90 32 -182 10 -264 -63 -45 -39 -86 -122 -86 -173 0 -37 -9 -51 -83 -136 -83
-95 -219 -210 -249 -210 -50 0 -48 69 5 180 70 145 93 176 172 235 296 219
701 583 1041 935 468 486 632 743 548 857 -35 47 -97 88 -170 112 -85 28 -222
37 -279 18z m243 -250 c11 -94 -232 -398 -688 -861 -217 -220 -543 -525 -588
-550 -20 -11 53 83 354 459 513 642 838 995 903 983 9 -2 17 -15 19 -31z m33
-1637 c24 -13 24 -36 0 -99 -82 -206 -322 -453 -400 -412 -29 16 -26 41 13
119 74 145 234 335 321 380 48 25 42 24 66 12z m1289 -10 c0 -31 -231 -257
-322 -314 l-31 -20 5 47 c9 81 98 180 233 261 56 34 115 47 115 26z"/>
<path d="M3253 2894 c-634 -77 -1458 -487 -2093 -1043 -368 -322 -665 -661
-882 -1004 -204 -323 -265 -554 -174 -656 27 -30 90 -59 159 -72 85 -15 97 -6
130 97 16 49 45 124 64 166 l36 77 151 65 c649 277 1213 462 1824 595 233 51
504 102 510 97 10 -11 -216 -367 -425 -667 -79 -114 -143 -216 -143 -226 0
-50 80 -82 205 -82 94 0 152 14 187 46 69 62 458 625 675 979 324 527 551 972
608 1190 19 75 19 146 -1 215 -12 42 -28 66 -72 109 -62 61 -123 89 -247 115
-88 19 -356 18 -512 -1z m374 -105 c47 -15 90 -69 99 -125 21 -145 -120 -437
-480 -989 -65 -99 -123 -183 -129 -186 -7 -3 -46 -11 -87 -18 -605 -100 -1755
-483 -2352 -782 -43 -22 -80 -39 -83 -39 -13 0 233 309 410 515 249 289 678
706 969 939 375 301 767 525 1093 625 221 68 452 92 560 60z"/>
</g>
</svg>
